<svg width="54" height="112" viewBox="0 0 54 112" fill="none" xmlns="http://www.w3.org/2000/svg">
<path d="M2.65431 29.6017C2.30917 27.1827 2.13623 24.7415 2.13623 22.2984L2.13623 17.0988C2.13624 7.65556 9.7915 9.95168e-05 19.2347 9.99295e-05L26.531 0.000100248L33.8273 0.000100567C43.2703 0.00010098 50.9258 7.65557 50.9258 17.0988L50.9258 22.2984C50.9258 24.7415 50.7527 27.1827 50.4079 29.6017L49.3856 36.7735C49.0066 39.4299 48.8348 42.1112 48.8724 44.7945L49.2849 74.5732C49.3091 76.3234 49.5848 78.0608 50.1047 79.7319C50.6487 81.4841 50.9258 83.308 50.9258 85.1427L50.9258 98.3588C50.9258 105.66 45.0064 111.58 37.7045 111.58L26.531 111.58L15.3578 111.58C8.05574 111.58 2.13623 105.66 2.13623 98.3588L2.13623 85.1427C2.13623 83.308 2.41294 81.4841 2.95745 79.7319C3.47681 78.0608 3.75279 76.3234 3.77687 74.5732L4.18956 44.7945C4.22706 42.1112 4.0554 39.4299 3.67678 36.7735L2.65431 29.6017Z" fill="#050829"/>
<path d="M49.0633 31.0768C49.3886 28.7933 49.5523 26.4904 49.5523 24.1841L49.5523 19.2777C49.5523 10.3657 42.3282 3.14159 33.4161 3.14159L26.5307 3.14159L19.6453 3.14159C10.7338 3.14159 3.50953 10.3657 3.50953 19.2777L3.50953 24.1841C3.50953 26.4904 3.6728 28.7933 3.99849 31.0768L4.96334 37.8441C5.32076 40.351 5.48249 42.8814 5.44734 45.4137L5.05793 73.516C5.03519 75.1669 4.7747 76.8071 4.28466 78.3835C3.77081 80.0371 3.50952 81.7584 3.50952 83.4898L3.50952 95.9611C3.50952 102.853 9.09576 108.438 15.9864 108.438L26.5307 108.438L37.0749 108.438C43.9657 108.438 49.5523 102.853 49.5523 95.9611L49.5523 83.4898C49.5523 81.7584 49.2907 80.0371 48.7768 78.3835C48.2865 76.8071 48.0262 75.1669 48.0034 73.516L47.6136 45.4137C47.5787 42.8814 47.7404 40.351 48.098 37.8441L49.0633 31.0768Z" fill="#15BD5D"/>
<path d="M3.45015 33.2121C3.45015 33.2121 0.6581 35.1381 0.195566 36.0631C-0.266701 36.9875 0.195565 37.8355 0.503743 37.759C0.812122 37.6812 4.43385 36.1403 4.43385 36.1403L3.45015 33.2121Z" fill="#050829"/>
<path d="M49.6114 33.2121C49.6114 33.2121 52.4033 35.1381 52.8662 36.0631C53.3284 36.9875 52.8662 37.8355 52.5576 37.759C52.2497 37.6812 48.6279 36.1403 48.6279 36.1403L49.6114 33.2121Z" fill="#050829"/>
<path d="M14.8276 3.53803C15.0011 3.11943 15.047 2.66394 14.9901 2.2165C11.8762 3.46759 9.2409 5.65314 7.42993 8.42902C8.56846 7.47309 9.84256 6.67884 11.207 6.08851C12.5997 5.48544 14.2461 4.94072 14.8276 3.53803Z" fill="#505797"/>
<path d="M38.2344 3.53803C38.0607 3.11943 38.015 2.66394 38.0721 2.2165C41.1854 3.46759 43.821 5.65314 45.6316 8.42902C44.4932 7.47309 43.2193 6.67884 41.8549 6.08851C40.4616 5.48544 38.8153 4.94072 38.2344 3.53803Z" fill="#505797"/>
<path d="M9.78559 61.3654C9.71327 55.5238 9.56864 50.1719 9.56864 48.2051C9.56864 42.3105 5.17627 36.7615 5.17627 36.7615L5.17627 59.6212C6.68382 60.2712 8.23665 60.8139 9.78559 61.3654Z" fill="#0F1942"/>
<path d="M9.66216 75.8941C9.84563 72.1864 9.84898 67.0774 9.79531 62.2072C8.23953 61.7772 6.69589 61.3096 5.17627 60.7629L5.17627 78.1011C6.70032 77.4229 8.19949 76.6923 9.66216 75.8941Z" fill="#0F1942"/>
<path d="M5.17627 79.371L5.17627 85.4238C5.17627 85.4238 8.99079 85.3078 9.56864 77.4484C9.58434 77.2344 9.59903 77.0103 9.61292 76.7816C8.15756 77.6905 6.71575 78.623 5.17627 79.371Z" fill="#0F1942"/>
<path d="M43.2761 61.3654C43.3486 55.5238 43.4928 50.1719 43.4928 48.2051C43.4928 42.3105 47.8854 36.7615 47.8854 36.7615L47.8854 59.6212C46.378 60.2712 44.8251 60.8139 43.2761 61.3654Z" fill="#0F1942"/>
<path d="M43.3997 75.8941C43.2159 72.1864 43.2125 67.0774 43.2662 62.2072C44.8218 61.7772 46.3661 61.3096 47.8855 60.7629L47.8855 78.1011C46.3614 77.4229 44.8621 76.6923 43.3997 75.8941Z" fill="#0F1942"/>
<path d="M47.8853 79.371L47.8853 85.4238C47.8853 85.4238 44.071 85.3078 43.4928 77.4484C43.4773 77.2344 43.4626 77.0103 43.4485 76.7816C44.9042 77.6905 46.3458 78.623 47.8853 79.371Z" fill="#0F1942"/>
<path d="M41.2965 80.9166C41.2965 80.9166 35.1135 84.0373 26.5308 84.0373C17.9484 84.0373 11.7647 80.9166 11.7647 80.9166C10.557 84.3781 10.0911 89.0175 9.91914 91.5144C9.84294 92.6226 10.4393 93.6678 11.4353 94.1607C14.0253 95.4421 19.5442 97.676 26.5308 97.676C33.5176 97.676 39.0358 95.4421 41.6266 94.1607C42.6221 93.6678 43.2184 92.6226 43.142 91.5144C42.9709 89.0175 42.5047 84.3781 41.2965 80.9166ZM45.5174 32.9224C45.2544 34.8161 44.3837 38.6116 41.5065 42.489C41.1067 43.0277 40.4506 43.3128 39.7825 43.2551C37.5627 43.0653 32.1403 42.6567 26.5308 42.6567C20.921 42.6567 15.4988 43.0653 13.279 43.2551C12.6108 43.3128 11.9547 43.0277 11.5554 42.489C8.67785 38.6116 7.80739 34.8161 7.54375 32.9224C7.43186 32.1167 7.81839 31.3224 8.53141 30.9327C10.5077 29.852 15.5234 27.9777 26.5308 27.9777C37.5379 27.9777 42.5536 29.852 44.5306 30.9327C45.2437 31.3224 45.6294 32.1167 45.5174 32.9224Z" fill="#0F1942"/>
<path d="M10.5884 108.424C9.1247 107.98 7.76755 107.189 6.66042 106.133C6.3719 105.858 6.0921 105.56 5.7328 105.388C5.48466 105.269 5.18487 105.229 4.92627 105.302C6.47782 107.424 8.85557 108.9 11.5866 109.262L11.5895 109.234C11.5748 108.774 11.0289 108.559 10.5884 108.424Z" fill="#9C3025"/>
<path d="M42.473 108.424C43.9368 107.98 45.2939 107.189 46.4014 106.133C46.6899 105.858 46.9689 105.56 47.3285 105.388C47.5767 105.269 47.8766 105.229 48.1355 105.302C46.5839 107.424 44.2058 108.9 41.4749 109.262L41.4722 109.234C41.4869 108.774 42.0323 108.559 42.473 108.424Z" fill="#9C3025"/>
</svg>
