<svg width="54" height="113" viewBox="0 0 54 113" fill="none" xmlns="http://www.w3.org/2000/svg">
<mask id="path-1-inside-1_76_884" fill="white">
<path d="M50.7439 82.6272C51.089 85.0462 51.262 87.4874 51.262 89.9305L51.262 95.1301C51.262 104.573 43.6067 112.229 34.1635 112.229L26.8672 112.229L19.5709 112.229C10.1279 112.229 2.47241 104.573 2.47241 95.1301L2.47241 89.9305C2.47241 87.4874 2.64548 85.0462 2.99028 82.6272L4.01262 75.4554C4.39164 72.7989 4.56337 70.1176 4.52581 67.4343L4.11325 37.6557C4.0891 35.9055 3.81339 34.1681 3.2935 32.497C2.74946 30.7448 2.47241 28.9208 2.47241 27.0861L2.47241 13.8701C2.47241 6.56884 8.39178 0.648802 15.6937 0.648802L26.8672 0.648803L38.0404 0.648803C45.3425 0.648803 51.262 6.56885 51.262 13.8701L51.262 27.0861C51.262 28.9209 50.9852 30.7448 50.4407 32.497C49.9214 34.1681 49.6454 35.9055 49.6213 37.6557L49.2086 67.4343C49.1711 70.1176 49.3428 72.7989 49.7214 75.4554L50.7439 82.6272Z"/>
</mask>
<path d="M2.99028 82.6272L1.85571 82.4655L1.85571 82.4655L2.99028 82.6272ZM4.01262 75.4554L2.87805 75.2937L2.87807 75.2935L4.01262 75.4554ZM4.52581 67.4343L3.37988 67.4504L3.37988 67.4502L4.52581 67.4343ZM4.11325 37.6557L2.96732 37.6716L2.96731 37.6715L4.11325 37.6557ZM3.2935 32.497L2.1992 32.8375L2.199 32.8369L3.2935 32.497ZM50.4407 32.497L51.5352 32.8371L51.5351 32.8372L50.4407 32.497ZM49.6213 37.6557L50.7673 37.6715L50.7673 37.6716L49.6213 37.6557ZM49.2086 67.4343L50.3546 67.4502L50.3546 67.4504L49.2086 67.4343ZM49.7214 75.4554L48.5868 75.6172L48.5868 75.6171L49.7214 75.4554ZM51.8784 82.4653C52.2312 84.9381 52.408 87.4333 52.408 89.9305L50.1159 89.9305C50.1159 87.5414 49.9468 85.1544 49.6093 82.7891L51.8784 82.4653ZM52.408 89.9305L52.408 95.1301L50.1159 95.1301L50.1159 89.9305L52.408 89.9305ZM52.408 95.1301C52.408 105.206 44.2396 113.375 34.1635 113.375L34.1635 111.083C42.9737 111.083 50.1159 103.94 50.1159 95.1301L52.408 95.1301ZM34.1635 113.375L26.8672 113.375L26.8672 111.083L34.1635 111.083L34.1635 113.375ZM26.8672 113.375L19.5709 113.375L19.5709 111.083L26.8672 111.083L26.8672 113.375ZM19.5709 113.375C9.49493 113.375 1.32637 105.206 1.32637 95.1301L3.61845 95.1301C3.61845 103.94 10.7608 111.083 19.5709 111.083L19.5709 113.375ZM1.32637 95.1301L1.32637 89.9305L3.61845 89.9305L3.61845 95.1301L1.32637 95.1301ZM1.32637 89.9305C1.32637 87.4333 1.50327 84.9381 1.85571 82.4655L4.12486 82.7889C3.78769 85.1544 3.61845 87.5415 3.61845 89.9305L1.32637 89.9305ZM1.85571 82.4655L2.87805 75.2937L5.14719 75.6171L4.12486 82.789L1.85571 82.4655ZM2.87807 75.2935C3.24869 72.6959 3.41661 70.0741 3.37988 67.4504L5.67173 67.4183C5.71014 70.1612 5.53459 72.902 5.14718 75.6173L2.87807 75.2935ZM3.37988 67.4502L2.96732 37.6716L5.25918 37.6398L5.67174 67.4185L3.37988 67.4502ZM2.96731 37.6715C2.94468 36.0312 2.68629 34.4031 2.1992 32.8375L4.3878 32.1566C4.9405 33.933 5.23352 35.7798 5.25918 37.6399L2.96731 37.6715ZM2.199 32.8369C1.62084 30.9748 1.32637 29.0362 1.32637 27.0861L3.61845 27.0861C3.61845 28.8055 3.87808 30.5149 4.388 32.1572L2.199 32.8369ZM1.32637 27.0861L1.32637 13.8701L3.61845 13.8701L3.61845 27.0861L1.32637 27.0861ZM1.32637 13.8701C1.32637 5.93594 7.7588 -0.49724 15.6937 -0.49724L15.6937 1.79484C9.02476 1.79484 3.61845 7.20175 3.61845 13.8701L1.32637 13.8701ZM15.6937 -0.49724L26.8672 -0.497239L26.8672 1.79484L15.6937 1.79484L15.6937 -0.49724ZM26.8672 -0.497239L38.0404 -0.497239L38.0404 1.79485L26.8672 1.79484L26.8672 -0.497239ZM38.0404 -0.497239C45.9754 -0.497238 52.408 5.93592 52.408 13.8701L50.1159 13.8701C50.1159 7.20177 44.7095 1.79485 38.0404 1.79485L38.0404 -0.497239ZM52.408 13.8701L52.408 27.0861L50.1159 27.0861L50.1159 13.8701L52.408 13.8701ZM52.408 27.0861C52.408 29.0361 52.1139 30.9747 51.5352 32.8371L49.3463 32.1569C49.8566 30.5149 50.1159 28.8056 50.1159 27.0861L52.408 27.0861ZM51.5351 32.8372C51.0485 34.4031 50.7898 36.0313 50.7673 37.6715L48.4754 37.6399C48.501 35.7797 48.7943 33.933 49.3463 32.1569L51.5351 32.8372ZM50.7673 37.6716L50.3546 67.4502L48.0627 67.4185L48.4754 37.6398L50.7673 37.6716ZM50.3546 67.4504C50.3179 70.0741 50.4857 72.696 50.856 75.2937L48.5868 75.6171C48.1998 72.9019 48.0244 70.1612 48.0627 67.4183L50.3546 67.4504ZM50.856 75.2937L51.8785 82.4655L49.6093 82.789L48.5868 75.6172L50.856 75.2937Z" fill="#2B2E4E" mask="url(#path-1-inside-1_76_884)"/>
<mask id="path-3-inside-2_76_884" fill="white">
<path d="M4.33468 81.1521C4.00932 83.4355 3.84564 85.7385 3.84564 88.0448L3.84564 92.9512C3.84564 101.863 11.0698 109.087 19.9818 109.087L26.8673 109.087L33.7526 109.087C42.6642 109.087 49.8884 101.863 49.8884 92.9512L49.8884 88.0448C49.8884 85.7385 49.7251 83.4355 49.3995 81.1521L48.4346 74.3848C48.0772 71.8779 47.9155 69.3475 47.9506 66.8152L48.34 38.7129C48.3628 37.062 48.6232 35.4218 49.1133 33.8454C49.6271 32.1918 49.8884 30.4704 49.8884 28.739L49.8884 16.2678C49.8884 9.37631 44.3022 3.79041 37.4115 3.7904L26.8673 3.7904L16.323 3.7904C9.43229 3.7904 3.84564 9.37631 3.84564 16.2678L3.84564 28.739C3.84564 30.4704 4.10727 32.1918 4.62112 33.8454C5.11149 35.4218 5.37178 37.062 5.39458 38.7129L5.78433 66.8151C5.81921 69.3475 5.65754 71.8779 5.29999 74.3848L4.33468 81.1521Z"/>
</mask>
<path d="M49.3995 81.1521L48.2649 81.3139L48.2649 81.3138L49.3995 81.1521ZM48.4346 74.3848L47.3 74.5465L47.3 74.5465L48.4346 74.3848ZM47.9506 66.8152L49.0965 66.831L49.0965 66.8311L47.9506 66.8152ZM48.34 38.7129L49.486 38.7287L49.486 38.7288L48.34 38.7129ZM49.1133 33.8454L50.2077 34.1855L50.2077 34.1856L49.1133 33.8454ZM4.62112 33.8454L3.5268 34.1858L3.5267 34.1855L4.62112 33.8454ZM5.39458 38.7129L4.24865 38.7288L4.24865 38.7287L5.39458 38.7129ZM5.78433 66.8151L6.93026 66.7993L6.93026 66.7994L5.78433 66.8151ZM5.29999 74.3848L6.43456 74.5466L6.43455 74.5466L5.29999 74.3848ZM5.46926 81.3137C5.15151 83.5438 4.99168 85.7927 4.99168 88.0448L2.6996 88.0448C2.6996 85.6843 2.86713 83.3273 3.20009 80.9904L5.46926 81.3137ZM4.99168 88.0448L4.99168 92.9512L2.6996 92.9512L2.6996 88.0448L4.99168 88.0448ZM4.99168 92.9512C4.99168 101.23 11.7027 107.941 19.9818 107.941L19.9818 110.233C10.4368 110.233 2.6996 102.496 2.6996 92.9512L4.99168 92.9512ZM19.9818 107.941L26.8673 107.941L26.8673 110.233L19.9818 110.233L19.9818 107.941ZM26.8673 107.941L33.7526 107.941L33.7526 110.233L26.8673 110.233L26.8673 107.941ZM33.7526 107.941C42.0312 107.941 48.7424 101.23 48.7424 92.9512L51.0345 92.9512C51.0345 102.496 43.2971 110.233 33.7526 110.233L33.7526 107.941ZM48.7424 92.9512L48.7424 88.0448L51.0345 88.0448L51.0345 92.9512L48.7424 92.9512ZM48.7424 88.0448C48.7424 85.7926 48.5829 83.5437 48.2649 81.3139L50.534 80.9902C50.8674 83.3274 51.0345 85.6844 51.0345 88.0448L48.7424 88.0448ZM48.2649 81.3138L47.3 74.5465L49.5692 74.223L50.534 80.9903L48.2649 81.3138ZM47.3 74.5465C46.9342 71.9808 46.7687 69.391 46.8047 66.7992L49.0965 66.8311C49.0622 69.304 49.2202 71.775 49.5692 74.223L47.3 74.5465ZM46.8047 66.7993L47.1941 38.697L49.486 38.7288L49.0965 66.831L46.8047 66.7993ZM47.1941 38.6971C47.2183 36.9362 47.4962 35.1868 48.0189 33.5052L50.2077 34.1856C49.7503 35.6568 49.5072 37.1878 49.486 38.7287L47.1941 38.6971ZM48.0189 33.5053C48.4985 31.9618 48.7424 30.3551 48.7424 28.739L51.0345 28.739C51.0345 30.5858 50.7558 32.4218 50.2077 34.1855L48.0189 33.5053ZM48.7424 28.739L48.7424 16.2678L51.0345 16.2678L51.0345 28.739L48.7424 28.739ZM48.7424 16.2678C48.7424 10.0092 43.6692 4.93645 37.4115 4.93645L37.4115 2.64436C44.9351 2.64436 51.0345 8.74338 51.0345 16.2678L48.7424 16.2678ZM37.4115 4.93645L26.8673 4.93645L26.8673 2.64436L37.4115 2.64436L37.4115 4.93645ZM26.8673 4.93645L16.323 4.93645L16.323 2.64436L26.8673 2.64436L26.8673 4.93645ZM16.323 4.93645C10.0652 4.93645 4.99168 10.0093 4.99168 16.2678L2.6996 16.2678C2.6996 8.74332 8.79939 2.64436 16.323 2.64436L16.323 4.93645ZM4.99168 16.2678L4.99168 28.739L2.6996 28.739L2.6996 16.2678L4.99168 16.2678ZM4.99168 28.739C4.99168 30.355 5.23586 31.9617 5.71554 33.5053L3.5267 34.1855C2.97867 32.4219 2.6996 30.5859 2.6996 28.739L4.99168 28.739ZM5.71544 33.505C6.2386 35.1868 6.51619 36.9363 6.54052 38.6971L4.24865 38.7287C4.22736 37.1877 3.98439 35.6568 3.5268 34.1858L5.71544 33.505ZM6.54051 38.697L6.93026 66.7993L4.6384 66.831L4.24865 38.7288L6.54051 38.697ZM6.93026 66.7994C6.96596 69.391 6.80051 71.9808 6.43456 74.5466L4.16543 74.2229C4.51458 71.775 4.67246 69.304 4.63839 66.8309L6.93026 66.7994ZM6.43455 74.5466L5.46923 81.3139L3.20012 80.9902L4.16544 74.2229L6.43455 74.5466Z" fill="#2B2E4E" mask="url(#path-3-inside-2_76_884)"/>
<mask id="path-5-inside-3_76_884" fill="white">
<path d="M49.9478 79.0168C49.9478 79.0168 52.7398 77.0908 53.2024 76.1657C53.6647 75.2413 53.2024 74.3934 52.8942 74.4699C52.5858 74.5477 48.9641 76.0886 48.9641 76.0886L49.9478 79.0168Z"/>
</mask>
<path d="M53.2024 76.1657L52.1773 75.6532L52.1774 75.6532L53.2024 76.1657ZM52.8942 74.4699L52.6138 73.3587L52.6182 73.3576L52.8942 74.4699ZM48.9641 76.0886L47.8777 76.4536L47.5402 75.4489L48.5154 75.034L48.9641 76.0886ZM49.9478 79.0168C49.2971 78.0734 49.297 78.0734 49.297 78.0735C49.297 78.0735 49.2969 78.0735 49.2969 78.0735C49.2969 78.0735 49.297 78.0735 49.297 78.0734C49.2972 78.0733 49.2975 78.0731 49.298 78.0727C49.299 78.0721 49.3006 78.0709 49.3029 78.0694C49.3074 78.0662 49.3145 78.0613 49.324 78.0547C49.3429 78.0415 49.3714 78.0215 49.4083 77.9956C49.4819 77.9436 49.5887 77.8677 49.7186 77.7735C49.9792 77.5846 50.3293 77.3248 50.6912 77.0389C51.0559 76.7508 51.418 76.4475 51.7091 76.1708C51.8546 76.0326 51.9716 75.911 52.0583 75.8095C52.1518 75.7001 52.1791 75.6497 52.1773 75.6532L54.2274 76.6783C54.0136 77.1059 53.6175 77.5192 53.2883 77.8321C52.9258 78.1767 52.5032 78.5284 52.1121 78.8374C51.7181 79.1486 51.3413 79.4281 51.064 79.6292C50.9249 79.73 50.8099 79.8118 50.7291 79.8688C50.6887 79.8973 50.6568 79.9197 50.6346 79.9351C50.6235 79.9428 50.6148 79.9488 50.6088 79.953C50.6058 79.9551 50.6034 79.9568 50.6017 79.958C50.6008 79.9586 50.6001 79.959 50.5996 79.9594C50.5993 79.9596 50.5991 79.9597 50.5989 79.9599C50.5989 79.9599 50.5988 79.96 50.5987 79.96C50.5986 79.9601 50.5985 79.9601 49.9478 79.0168ZM52.1774 75.6532C52.2745 75.459 52.2537 75.3187 52.2404 75.2747C52.2309 75.2433 52.2354 75.2875 52.3086 75.3642C52.3485 75.406 52.6609 75.7086 53.1702 75.5822L52.6182 73.3576C53.2816 73.193 53.7673 73.5729 53.9661 73.781C54.1982 74.0241 54.3472 74.3237 54.434 74.6103C54.6133 75.2022 54.5926 75.9481 54.2274 76.6783L52.1774 75.6532ZM53.1746 75.5811C53.2185 75.57 53.2016 75.5723 53.0492 75.6311C52.9298 75.6771 52.7701 75.7408 52.581 75.8176C52.2038 75.9706 51.7267 76.1687 51.2558 76.3657C50.7857 76.5624 50.3249 76.7568 49.9813 76.9021C49.8096 76.9747 49.6673 77.0351 49.5681 77.0772C49.5184 77.0983 49.4795 77.1148 49.4531 77.126C49.4399 77.1316 49.4298 77.1359 49.423 77.1388C49.4196 77.1403 49.417 77.1414 49.4153 77.1421C49.4144 77.1425 49.4138 77.1427 49.4134 77.1429C49.4132 77.143 49.413 77.1431 49.4129 77.1431C49.4129 77.1431 49.4128 77.1431 49.4128 77.1432C49.4128 77.1432 49.4128 77.1432 48.9641 76.0886C48.5154 75.034 48.5155 75.034 48.5155 75.034C48.5155 75.034 48.5156 75.034 48.5156 75.034C48.5157 75.0339 48.5159 75.0338 48.5161 75.0337C48.5166 75.0335 48.5173 75.0333 48.5182 75.0329C48.5199 75.0321 48.5226 75.031 48.526 75.0295C48.533 75.0266 48.5432 75.0222 48.5566 75.0165C48.5834 75.0052 48.6226 74.9885 48.6726 74.9673C48.7726 74.9248 48.9157 74.8642 49.0883 74.7911C49.4335 74.6451 49.8973 74.4494 50.3712 74.2512C50.8443 74.0532 51.3304 73.8515 51.7191 73.6937C51.9128 73.6151 52.0867 73.5456 52.2244 73.4925C52.3291 73.4521 52.4928 73.3892 52.6138 73.3587L53.1746 75.5811ZM50.0505 75.7236L51.0342 78.6518L48.8614 79.3817L47.8777 76.4536L50.0505 75.7236Z" fill="#2B2E4E" mask="url(#path-5-inside-3_76_884)"/>
<mask id="path-7-inside-4_76_884" fill="white">
<path d="M3.78659 79.0168C3.78659 79.0168 0.994612 77.0908 0.531742 76.1657C0.0695429 75.2413 0.531741 74.3934 0.840321 74.4699C1.14823 74.5477 4.77002 76.0886 4.77002 76.0886L3.78659 79.0168Z"/>
</mask>
<path d="M0.531742 76.1657L-0.49316 76.6786L-0.493309 76.6783L0.531742 76.1657ZM0.840321 74.4699L1.116 73.3575L1.12112 73.3588L0.840321 74.4699ZM4.77002 76.0886L5.21868 75.034L6.19382 75.4489L5.85643 76.4535L4.77002 76.0886ZM3.78659 79.0168C3.13584 79.9601 3.13576 79.9601 3.13567 79.96C3.13563 79.96 3.13553 79.9599 3.13544 79.9598C3.13526 79.9597 3.13504 79.9596 3.13478 79.9594C3.13426 79.959 3.13357 79.9586 3.13271 79.958C3.131 79.9568 3.12862 79.9551 3.12559 79.953C3.11953 79.9488 3.11088 79.9428 3.0998 79.9351C3.07763 79.9196 3.0457 79.8973 3.00528 79.8688C2.92448 79.8118 2.80948 79.73 2.67042 79.6292C2.39306 79.4281 2.01626 79.1486 1.62231 78.8374C1.23116 78.5284 0.808574 78.1767 0.446051 77.8322C0.116815 77.5192 -0.279279 77.106 -0.49316 76.6786L1.55664 75.6529C1.55494 75.6495 1.58231 75.7 1.6758 75.8094C1.76257 75.9109 1.87966 76.0325 2.02512 76.1708C2.31627 76.4475 2.67847 76.7508 3.04317 77.0389C3.40508 77.3248 3.75519 77.5846 4.0158 77.7735C4.14571 77.8677 4.25246 77.9436 4.32615 77.9956C4.36297 78.0216 4.39148 78.0415 4.41044 78.0547C4.41992 78.0613 4.427 78.0662 4.43154 78.0694C4.4338 78.071 4.43543 78.0721 4.43641 78.0728C4.43689 78.0731 4.43721 78.0733 4.43737 78.0734C4.43745 78.0735 4.43748 78.0735 4.43748 78.0735C4.43747 78.0735 4.43744 78.0735 4.43744 78.0735C4.43739 78.0734 4.43733 78.0734 3.78659 79.0168ZM-0.493309 76.6783C-0.8584 75.9481 -0.8792 75.2022 -0.699809 74.6102C-0.612957 74.3235 -0.463857 74.0238 -0.231564 73.7808C-0.0323686 73.5724 0.453186 73.1932 1.116 73.3575L0.564641 75.5823C1.07317 75.7083 1.38523 75.4065 1.42542 75.3645C1.4987 75.2878 1.50328 75.2435 1.49379 75.2748C1.48048 75.3187 1.45969 75.459 1.55679 75.6532L-0.493309 76.6783ZM1.12112 73.3588C1.24187 73.3893 1.40547 73.4522 1.51012 73.4926C1.64772 73.5457 1.82152 73.6151 2.01527 73.6938C2.40382 73.8515 2.88985 74.0532 3.36299 74.2512C3.83681 74.4494 4.30064 74.6451 4.64581 74.7911C4.81845 74.8642 4.96155 74.9248 5.06153 74.9673C5.11152 74.9885 5.15074 75.0052 5.1775 75.0165C5.19088 75.0222 5.20114 75.0266 5.20807 75.0295C5.21154 75.031 5.21418 75.0321 5.21595 75.0329C5.21684 75.0332 5.21752 75.0335 5.21797 75.0337C5.2182 75.0338 5.21837 75.0339 5.21849 75.034C5.21855 75.034 5.2186 75.034 5.21863 75.034C5.21866 75.034 5.21868 75.034 4.77002 76.0886C4.32135 77.1432 4.32135 77.1432 4.32133 77.1432C4.3213 77.1431 4.32127 77.1431 4.32121 77.1431C4.32111 77.1431 4.32096 77.143 4.32075 77.1429C4.32032 77.1427 4.31969 77.1425 4.31883 77.1421C4.31713 77.1414 4.31456 77.1403 4.31117 77.1388C4.30438 77.1359 4.29426 77.1316 4.28104 77.126C4.25459 77.1148 4.2157 77.0983 4.16606 77.0772C4.06677 77.0351 3.92451 76.9747 3.7528 76.9021C3.40926 76.7568 2.94839 76.5624 2.47828 76.3657C2.00748 76.1687 1.53033 75.9706 1.1532 75.8175C0.964112 75.7408 0.804436 75.6771 0.685033 75.631C0.532687 75.5722 0.515744 75.5699 0.559518 75.581L1.12112 73.3588ZM5.85643 76.4535L4.87299 79.3816L2.70018 78.6519L3.68361 75.7237L5.85643 76.4535Z" fill="#2B2E4E" mask="url(#path-7-inside-4_76_884)"/>
<mask id="path-9-inside-5_76_884" fill="white">
<path d="M38.5703 108.691C38.3969 109.109 38.351 109.565 38.4079 110.012C41.5217 108.761 44.1571 106.576 45.968 103.8C44.8295 104.756 43.5554 105.55 42.1909 106.14C40.7982 106.743 39.1518 107.288 38.5703 108.691Z"/>
</mask>
<path d="M38.4079 110.012L38.8351 111.076L37.4581 111.629L37.271 110.157L38.4079 110.012ZM45.968 103.8L45.2311 102.922L46.9279 104.426L45.968 103.8ZM42.1909 106.14L41.7355 105.089L41.7359 105.088L42.1909 106.14ZM39.6291 109.13C39.5417 109.34 39.5096 109.592 39.5448 109.868L37.271 110.157C37.1923 109.538 37.2521 108.878 37.5116 108.252L39.6291 109.13ZM37.9806 108.949C40.8739 107.786 43.3242 105.755 45.0082 103.174L46.9279 104.426C44.9899 107.397 42.1696 109.736 38.8351 111.076L37.9806 108.949ZM46.7049 104.677C45.4838 105.703 44.1152 106.556 42.646 107.192L41.7359 105.088C42.9956 104.543 44.1752 103.809 45.2311 102.922L46.7049 104.677ZM42.6463 107.192C41.8781 107.525 41.2348 107.764 40.6571 108.104C40.1071 108.427 39.786 108.751 39.629 109.13L37.5117 108.252C37.9362 107.228 38.729 106.578 39.4958 106.128C40.2348 105.693 41.1111 105.359 41.7355 105.089L42.6463 107.192Z" fill="#2B2E4E" mask="url(#path-9-inside-5_76_884)"/>
<mask id="path-11-inside-6_76_884" fill="white">
<path d="M15.1638 108.691C15.3375 109.109 15.3831 109.565 15.3261 110.012C12.2128 108.761 9.57715 106.576 7.76659 103.8C8.90498 104.756 10.1789 105.55 11.5433 106.14C12.9366 106.743 14.5829 107.288 15.1638 108.691Z"/>
</mask>
<path d="M15.3261 110.012L16.463 110.157L16.2754 111.629L14.8988 111.076L15.3261 110.012ZM7.76659 103.8L6.80668 104.426L8.50357 102.922L7.76659 103.8ZM11.5433 106.14L11.9984 105.088L11.9986 105.089L11.5433 106.14ZM16.2223 108.251C16.4825 108.878 16.5418 109.539 16.463 110.157L14.1893 109.867C14.2245 109.591 14.1926 109.34 14.1053 109.13L16.2223 108.251ZM14.8988 111.076C11.565 109.736 8.74433 107.397 6.80668 104.426L8.72649 103.174C10.41 105.755 12.8607 107.786 15.7535 108.949L14.8988 111.076ZM8.50357 102.922C9.55938 103.809 10.7388 104.544 11.9984 105.088L11.0883 107.192C9.61899 106.556 8.25058 105.703 7.02961 104.677L8.50357 102.922ZM11.9986 105.089C12.6235 105.359 13.4998 105.693 14.2389 106.128C15.0057 106.578 15.7984 107.228 16.2226 108.252L14.105 109.129C13.9482 108.751 13.6274 108.427 13.0775 108.104C12.4999 107.764 11.8565 107.525 11.0881 107.192L11.9986 105.089Z" fill="#2B2E4E" mask="url(#path-11-inside-6_76_884)"/>
<path d="M47.6487 73.6335L47.6487 52.9868C46.5197 52.514 45.3654 52.0959 44.196 51.6794C44.2323 54.3501 44.282 56.8952 44.3235 59.0219C44.3675 61.2754 44.4023 63.059 44.4023 64.0238C44.4023 66.8396 45.4552 69.6051 46.5345 71.6929C46.9228 72.444 47.3112 73.1011 47.6487 73.6335Z" stroke="#2B2E4E" stroke-width="1.14604"/>
<path d="M47.6487 35.0161C46.5119 35.5394 45.3917 36.0934 44.2928 36.6847C44.1305 40.2338 44.1238 44.9878 44.171 49.5853C45.3363 49.9131 46.4976 50.2649 47.6487 50.658L47.6487 35.0161Z" stroke="#2B2E4E" stroke-width="1.14604"/>
<mask id="path-15-inside-7_76_884" fill="white">
<path d="M48.2217 32.858L48.2217 26.8052C48.2217 26.8052 44.4072 26.9212 43.8293 34.7806C43.8136 34.9946 43.7989 35.2187 43.785 35.4474C45.2404 34.5385 46.6822 33.606 48.2217 32.858Z"/>
</mask>
<path d="M48.2217 26.8052L48.1868 25.6597L49.3677 25.6237L49.3677 26.8052L48.2217 26.8052ZM43.8293 34.7806L42.6863 34.6968L42.6863 34.6966L43.8293 34.7806ZM43.785 35.4474L44.3921 36.4195L42.5064 37.5972L42.6411 35.378L43.785 35.4474ZM47.0756 32.858L47.0756 26.8052L49.3677 26.8052L49.3677 32.858L47.0756 32.858ZM48.2217 26.8052C48.2565 27.9507 48.2577 27.9507 48.2588 27.9506C48.2591 27.9506 48.2603 27.9506 48.261 27.9505C48.2624 27.9505 48.2638 27.9504 48.2651 27.9504C48.2677 27.9503 48.2702 27.9502 48.2724 27.9501C48.2769 27.9499 48.2805 27.9497 48.2833 27.9495C48.289 27.9491 48.2916 27.9489 48.2912 27.9489C48.2903 27.949 48.2777 27.9503 48.255 27.9543C48.2094 27.9623 48.1237 27.9811 48.0092 28.0228C47.7839 28.105 47.4331 28.2808 47.0468 28.6617C46.2812 29.4166 45.2483 31.1097 44.9723 34.8647L42.6863 34.6966C42.9881 30.5921 44.1515 28.2975 45.4376 27.0295C46.0771 26.399 46.716 26.0546 47.224 25.8694C47.4762 25.7775 47.6931 25.7258 47.8583 25.6968C47.941 25.6822 48.0109 25.6733 48.0662 25.6679C48.0939 25.6652 48.1179 25.6633 48.1381 25.662C48.1482 25.6614 48.1573 25.6609 48.1654 25.6605C48.1695 25.6603 48.1733 25.6601 48.1769 25.66C48.1787 25.6599 48.1804 25.6599 48.182 25.6598C48.1829 25.6598 48.1841 25.6598 48.1845 25.6597C48.1857 25.6597 48.1868 25.6597 48.2217 26.8052ZM44.9723 34.8645C44.957 35.0725 44.9426 35.2916 44.929 35.5169L42.6411 35.378C42.6552 35.1458 42.6702 34.9168 42.6863 34.6968L44.9723 34.8645ZM43.1779 34.4754C44.6084 33.582 46.1129 32.6085 47.7208 31.8272L48.7225 33.8889C47.2515 34.6036 45.8724 35.4949 44.3921 36.4195L43.1779 34.4754Z" fill="#2B2E4E" mask="url(#path-15-inside-7_76_884)"/>
<path d="M9.33213 64.0238C9.33213 63.0573 9.36696 61.2695 9.41097 59.0107C9.45236 56.8864 9.50186 54.3454 9.53814 51.6794C8.36879 52.0959 7.21444 52.514 6.0856 52.9868L6.0856 73.6336C6.42305 73.1012 6.8115 72.4441 7.19985 71.6929C8.27922 69.6051 9.33213 66.8396 9.33213 64.0238Z" stroke="#2B2E4E" stroke-width="1.14604"/>
<path d="M6.0857 50.658C7.2368 50.2648 8.39836 49.9131 9.56359 49.5853C9.61086 44.9878 9.60413 40.2338 9.44151 36.6847C8.34275 36.0934 7.22251 35.5394 6.0857 35.0161L6.0857 50.658Z" stroke="#2B2E4E" stroke-width="1.14604"/>
<mask id="path-19-inside-8_76_884" fill="white">
<path d="M5.51287 32.858L5.51287 26.8052C5.51287 26.8052 9.32719 26.9212 9.90544 34.7806C9.92087 34.9946 9.93562 35.2187 9.94971 35.4474C8.49401 34.5385 7.05241 33.606 5.51287 32.858Z"/>
</mask>
<path d="M5.51287 26.8052L4.36683 26.8052L4.36683 25.6237L5.54772 25.6597L5.51287 26.8052ZM9.90544 34.7806L11.0484 34.6965L11.0485 34.6982L9.90544 34.7806ZM9.94971 35.4474L11.0936 35.377L11.2304 37.5982L9.34271 36.4195L9.94971 35.4474ZM4.36683 32.858L4.36683 26.8052L6.65891 26.8052L6.65891 32.858L4.36683 32.858ZM5.51287 26.8052C5.54772 25.6597 5.54889 25.6597 5.55007 25.6597C5.55048 25.6598 5.55168 25.6598 5.55251 25.6598C5.55416 25.6599 5.55589 25.6599 5.55767 25.66C5.56124 25.6601 5.56506 25.6603 5.56912 25.6605C5.57725 25.6609 5.58638 25.6614 5.59646 25.662C5.61662 25.6633 5.64065 25.6652 5.66831 25.6679C5.7236 25.6733 5.79356 25.6822 5.87622 25.6968C6.04149 25.7258 6.25832 25.7775 6.51049 25.8694C7.01848 26.0546 7.65741 26.399 8.29693 27.0295C9.58298 28.2975 10.7464 30.5921 11.0484 34.6965L8.76249 34.8647C8.48622 31.1098 7.45335 29.4166 6.68769 28.6617C6.30134 28.2808 5.95056 28.1049 5.72529 28.0228C5.61083 27.9811 5.52515 27.9623 5.47957 27.9543C5.4568 27.9503 5.44424 27.949 5.44338 27.9489C5.44296 27.9489 5.4455 27.9491 5.45119 27.9495C5.45404 27.9497 5.45769 27.9499 5.46215 27.9501C5.46438 27.9502 5.46681 27.9503 5.46946 27.9504C5.47078 27.9504 5.47215 27.9505 5.47358 27.9505C5.47429 27.9506 5.4754 27.9506 5.47576 27.9506C5.47688 27.9507 5.47801 27.9507 5.51287 26.8052ZM11.0485 34.6982C11.0643 34.917 11.0793 35.1452 11.0936 35.377L8.80583 35.5179C8.79193 35.2922 8.77744 35.0722 8.76236 34.863L11.0485 34.6982ZM9.34271 36.4195C7.86191 35.4949 6.48315 34.6036 5.01205 33.8889L6.01368 31.8272C7.62168 32.6084 9.12612 33.582 10.5567 34.4753L9.34271 36.4195Z" fill="#2B2E4E" mask="url(#path-19-inside-8_76_884)"/>
<mask id="path-21-inside-9_76_884" fill="white">
<path d="M12.1014 31.3122C12.1014 31.3122 18.2844 28.1916 26.8672 28.1916C35.4495 28.1916 41.6332 31.3122 41.6332 31.3122C42.841 27.8508 43.3069 23.2113 43.4788 20.7145C43.555 19.6063 42.9586 18.561 41.9626 18.0682C39.3726 16.7868 33.8537 14.5529 26.8672 14.5529C19.8803 14.5529 14.3621 16.7868 11.7714 18.0682C10.7759 18.561 10.1795 19.6063 10.256 20.7145C10.427 23.2113 10.8933 27.8508 12.1014 31.3122ZM7.88059 79.3065C8.14355 77.4128 9.01429 73.6172 11.8915 69.7399C12.2913 69.2012 12.9473 68.9161 13.6155 68.9738C15.8352 69.1636 21.2577 69.5722 26.8672 69.5722C32.477 69.5722 37.8991 69.1636 40.1189 68.9738C40.7871 68.9161 41.4432 69.2012 41.8426 69.7399C44.7201 73.6172 45.5906 77.4128 45.8542 79.3065C45.9661 80.1122 45.5796 80.9064 44.8665 81.2962C42.8902 82.3769 37.8745 84.2512 26.8672 84.2512C15.8601 84.2512 10.8443 82.3769 8.86738 81.2962C8.15429 80.9064 7.76856 80.1122 7.88059 79.3065Z"/>
</mask>
<path d="M41.6332 31.3122L42.7153 31.6898L42.2844 32.9246L41.1169 32.3354L41.6332 31.3122ZM43.4788 20.7145L44.6221 20.7932L44.6221 20.7933L43.4788 20.7145ZM41.9626 18.0682L42.4708 17.041L42.4709 17.041L41.9626 18.0682ZM11.7714 18.0682L11.2629 17.0411L11.2633 17.0409L11.7714 18.0682ZM10.256 20.7145L11.3993 20.6356L11.3993 20.6362L10.256 20.7145ZM11.8915 69.7399L10.9711 69.0569L10.9712 69.0568L11.8915 69.7399ZM13.6155 68.9738L13.5178 70.1157L13.5169 70.1156L13.6155 68.9738ZM40.1189 68.9738L40.2175 70.1156L40.2166 70.1157L40.1189 68.9738ZM41.8426 69.7399L40.9223 70.4228L40.9219 70.4224L41.8426 69.7399ZM45.8542 79.3065L46.9893 79.1485L46.9893 79.1489L45.8542 79.3065ZM44.8665 81.2962L44.3167 80.2907L44.3169 80.2906L44.8665 81.2962ZM8.86738 81.2962L9.41702 80.2906L9.41709 80.2906L8.86738 81.2962ZM12.1014 31.3122C11.585 30.2891 11.5853 30.289 11.5857 30.2888C11.5858 30.2887 11.5862 30.2886 11.5864 30.2884C11.587 30.2881 11.5877 30.2878 11.5884 30.2874C11.5899 30.2867 11.5918 30.2857 11.5941 30.2846C11.5986 30.2824 11.6046 30.2794 11.6121 30.2757C11.6272 30.2682 11.6482 30.2579 11.675 30.245C11.7288 30.2191 11.8059 30.1824 11.9056 30.1367C12.105 30.0451 12.3946 29.9169 12.767 29.7642C13.5115 29.459 14.5885 29.0558 15.9385 28.6536C18.6358 27.85 22.4396 27.0455 26.8672 27.0455L26.8672 29.3376C22.7121 29.3376 19.1329 30.0935 16.593 30.8502C15.3244 31.2282 14.3193 31.6051 13.6363 31.8851C13.2949 32.025 13.0344 32.1405 12.8621 32.2196C12.776 32.2592 12.7119 32.2896 12.6709 32.3094C12.6504 32.3193 12.6356 32.3265 12.6267 32.3309C12.6223 32.3331 12.6193 32.3346 12.6178 32.3354C12.6171 32.3357 12.6167 32.3359 12.6167 32.3359C12.6167 32.3359 12.6168 32.3359 12.617 32.3358C12.6171 32.3357 12.6173 32.3356 12.6173 32.3356C12.6176 32.3355 12.6178 32.3354 12.1014 31.3122ZM26.8672 27.0455C31.2946 27.0455 35.0984 27.85 37.7958 28.6536C39.1459 29.0558 40.223 29.459 40.9676 29.7642C41.34 29.9168 41.6296 30.0451 41.829 30.1366C41.9287 30.1824 42.0059 30.219 42.0596 30.245C42.0865 30.2579 42.1075 30.2682 42.1225 30.2756C42.13 30.2793 42.136 30.2823 42.1406 30.2846C42.1428 30.2857 42.1447 30.2867 42.1462 30.2874C42.1469 30.2878 42.1476 30.2881 42.1482 30.2884C42.1484 30.2885 42.1488 30.2887 42.1489 30.2888C42.1493 30.289 42.1496 30.2891 41.6332 31.3122C41.1169 32.3354 41.1171 32.3355 41.1174 32.3356C41.1174 32.3356 41.1176 32.3358 41.1177 32.3358C41.1179 32.3359 41.118 32.3359 41.118 32.3359C41.118 32.3359 41.1176 32.3357 41.1169 32.3354C41.1154 32.3346 41.1124 32.3331 41.108 32.331C41.0991 32.3266 41.0843 32.3193 41.0638 32.3094C41.0227 32.2896 40.9587 32.2592 40.8726 32.2197C40.7002 32.1405 40.4397 32.025 40.0983 31.8851C39.4152 31.6051 38.41 31.2282 37.1414 30.8502C34.6013 30.0935 31.0221 29.3376 26.8672 29.3376L26.8672 27.0455ZM40.5512 30.9347C41.7041 27.6304 42.164 23.1255 42.3355 20.6358L44.6221 20.7933C44.4497 23.2972 43.9779 28.0712 42.7153 31.6898L40.5512 30.9347ZM42.3355 20.6359C42.38 19.9881 42.0317 19.381 41.4543 19.0954L42.4709 17.041C43.8856 17.7411 44.73 19.2246 44.6221 20.7932L42.3355 20.6359ZM41.4544 19.0954C38.9576 17.8601 33.6171 15.6989 26.8672 15.6989L26.8672 13.4068C34.0903 13.4068 39.7876 15.7135 42.4708 17.041L41.4544 19.0954ZM26.8672 15.6989C20.117 15.6989 14.7771 17.8601 12.2795 19.0954L11.2633 17.0409C13.9471 15.7135 19.6437 13.4068 26.8672 13.4068L26.8672 15.6989ZM12.2799 19.0953C11.7029 19.3809 11.3546 19.9879 11.3993 20.6356L9.11266 20.7934C9.00441 19.2247 9.84883 17.7412 11.2629 17.0411L12.2799 19.0953ZM11.3993 20.6362C11.5699 23.1254 12.0302 27.6303 13.1835 30.9346L11.0194 31.6899C9.75637 28.0712 9.28421 23.2973 9.11262 20.7929L11.3993 20.6362ZM6.74543 79.1489C7.02599 77.1284 7.94645 73.1331 10.9711 69.0569L12.8118 70.4228C10.0821 74.1014 9.2611 77.6971 9.01573 79.4642L6.74543 79.1489ZM10.9712 69.0568C11.6155 68.1888 12.6623 67.7412 13.7141 67.832L13.5169 70.1156C13.2323 70.091 12.9671 70.2136 12.8117 70.4229L10.9712 69.0568ZM13.7131 67.8319C15.9197 68.0206 21.3052 68.4261 26.8672 68.4261L26.8672 70.7182C21.2102 70.7182 15.7507 70.3066 13.5178 70.1157L13.7131 67.8319ZM26.8672 68.4261C32.4295 68.4261 37.8146 68.0206 40.0212 67.8319L40.2166 70.1157C37.9836 70.3066 32.5245 70.7182 26.8672 70.7182L26.8672 68.4261ZM40.0203 67.832C41.0719 67.7412 42.1192 68.1886 42.7632 69.0574L40.9219 70.4224C40.7673 70.2137 40.5023 70.091 40.2175 70.1156L40.0203 67.832ZM42.7629 69.0569C45.788 73.1331 46.7081 77.1285 46.9893 79.1485L44.7191 79.4645C44.4731 77.6971 43.6522 74.1014 40.9223 70.4228L42.7629 69.0569ZM46.9893 79.1489C47.1648 80.4119 46.5597 81.6768 45.4162 82.3018L44.3169 80.2906C44.5994 80.1361 44.7674 79.8124 44.7191 79.4642L46.9893 79.1489ZM45.4164 82.3017C43.2166 83.5046 37.9925 85.3972 26.8672 85.3972L26.8672 83.1051C37.7565 83.1051 42.5639 81.2492 44.3167 80.2907L45.4164 82.3017ZM26.8672 85.3972C15.742 85.3972 10.518 83.5046 8.31766 82.3018L9.41709 80.2906C11.1706 81.2492 15.9781 83.1051 26.8672 83.1051L26.8672 85.3972ZM8.31773 82.3018C7.17342 81.6764 6.56993 80.411 6.74547 79.1487L9.01571 79.4644C8.96718 79.8133 9.13516 80.1365 9.41702 80.2906L8.31773 82.3018Z" fill="#2B2E4E" mask="url(#path-21-inside-9_76_884)"/>
<mask id="path-23-inside-10_76_884" fill="white">
<path d="M42.8095 3.80454C44.2732 4.24843 45.6304 5.04007 46.7375 6.09609C47.0261 6.37099 47.3059 6.66891 47.6651 6.84131C47.9133 6.96004 48.2131 7.00016 48.4717 6.92704C46.9201 4.80528 44.5424 3.32893 41.8114 2.96728L41.8085 2.99533C41.8232 3.45498 42.369 3.66957 42.8095 3.80454Z"/>
</mask>
<path d="M42.8095 3.80454L42.4769 4.90127L42.4737 4.9003L42.8095 3.80454ZM46.7375 6.09609L45.947 6.9258L45.9465 6.92538L46.7375 6.09609ZM47.6651 6.84131L47.1705 7.87509L47.1694 7.87456L47.6651 6.84131ZM48.4717 6.92704L49.3968 6.25056L50.3699 7.5813L48.7835 8.02985L48.4717 6.92704ZM41.8114 2.96728L40.6714 2.84994L40.7922 1.67627L41.9618 1.83116L41.8114 2.96728ZM41.8085 2.99533L40.663 3.03194L40.6606 2.95478L40.6685 2.87798L41.8085 2.99533ZM43.1421 2.70782C44.7774 3.20375 46.2916 4.08699 47.5285 5.26679L45.9465 6.92538C44.9692 5.99316 43.769 5.29311 42.4769 4.90127L43.1421 2.70782ZM47.5281 5.26637C47.892 5.61312 48.009 5.73517 48.1609 5.80806L47.1694 7.87456C46.6027 7.60264 46.1601 7.12886 45.947 6.9258L47.5281 5.26637ZM48.1598 5.80752C48.1638 5.80944 48.1697 5.81179 48.1768 5.81383C48.1839 5.81587 48.1899 5.81695 48.194 5.81742C48.1982 5.8179 48.1981 5.81749 48.1934 5.81781C48.1887 5.81813 48.1772 5.81934 48.1599 5.82423L48.7835 8.02985C48.2144 8.19076 47.6275 8.09378 47.1705 7.87509L48.1598 5.80752ZM47.5466 7.60352C46.1738 5.72621 44.072 4.42269 41.6609 4.10341L41.9618 1.83116C45.0127 2.23516 47.6665 3.88435 49.3968 6.25056L47.5466 7.60352ZM42.9514 3.08463L42.9485 3.11267L40.6685 2.87798L40.6714 2.84994L42.9514 3.08463ZM42.954 2.95872C42.9522 2.9024 42.9417 2.84301 42.9217 2.7847C42.9019 2.72706 42.8762 2.6801 42.8515 2.64448C42.805 2.57727 42.7666 2.55593 42.7819 2.56601C42.7958 2.57524 42.8327 2.59626 42.9026 2.6248C42.9707 2.65263 43.0508 2.67986 43.1453 2.70879L42.4737 4.9003C42.2416 4.82917 41.8578 4.70309 41.5168 4.47737C41.1645 4.24419 40.687 3.78317 40.663 3.03194L42.954 2.95872Z" fill="#2B2E4E" mask="url(#path-23-inside-10_76_884)"/>
<mask id="path-25-inside-11_76_884" fill="white">
<path d="M10.9249 3.80454C9.46116 4.24843 8.10408 5.04007 6.99655 6.09609C6.70809 6.37099 6.42903 6.66891 6.06946 6.84131C5.82126 6.96004 5.5214 7.00016 5.26246 6.92704C6.81408 4.80528 9.19216 3.32893 11.9231 2.96729L11.9258 2.99533C11.911 3.45498 11.3656 3.66957 10.9249 3.80454Z"/>
</mask>
<path d="M10.9249 3.80454L11.2605 4.90036L11.2575 4.90127L10.9249 3.80454ZM6.99655 6.09609L7.7874 6.92552L7.7872 6.92571L6.99655 6.09609ZM6.06946 6.84131L6.56495 7.8747L6.56403 7.87514L6.06946 6.84131ZM5.26246 6.92704L4.95101 8.02995L3.36387 7.58177L4.33738 6.25054L5.26246 6.92704ZM11.9231 2.96729L11.7726 1.83116L12.9506 1.67517L13.0639 2.85802L11.9231 2.96729ZM11.9258 2.99533L13.0666 2.88606L13.0736 2.95893L13.0712 3.03211L11.9258 2.99533ZM11.2575 4.90127C9.9654 5.2931 8.76526 5.99315 7.7874 6.92552L6.2057 5.26665C7.44291 4.08699 8.95693 3.20376 10.5923 2.70782L11.2575 4.90127ZM7.7872 6.92571C7.57512 7.12783 7.13242 7.60262 6.56495 7.8747L5.57397 5.80791C5.72563 5.7352 5.84106 5.61415 6.2059 5.26646L7.7872 6.92571ZM6.56403 7.87514C6.10682 8.09386 5.52005 8.19064 4.95101 8.02995L5.5739 5.82413C5.55683 5.81931 5.54546 5.81812 5.54089 5.81781C5.53631 5.81749 5.53629 5.81789 5.54052 5.81742C5.54469 5.81694 5.55077 5.81585 5.55787 5.81381C5.56498 5.81176 5.57087 5.8094 5.5749 5.80747L6.56403 7.87514ZM4.33738 6.25054C6.06778 3.88431 8.72186 2.23516 11.7726 1.83116L12.0735 4.10341C9.66246 4.4227 7.56037 5.72625 6.18753 7.60354L4.33738 6.25054ZM13.0639 2.85802L13.0666 2.88606L10.785 3.1046L10.7823 3.07655L13.0639 2.85802ZM13.0712 3.03211C13.0471 3.78288 12.5703 4.24387 12.2178 4.47726C11.8767 4.70308 11.4929 4.82917 11.2605 4.90035L10.5893 2.70874C10.6837 2.67982 10.7638 2.65261 10.8319 2.62481C10.9017 2.59629 10.9385 2.57531 10.9524 2.56613C10.9675 2.5561 10.9291 2.57749 10.8826 2.6447C10.858 2.68032 10.8323 2.72725 10.8125 2.78481C10.7926 2.84305 10.7821 2.90234 10.7803 2.95855L13.0712 3.03211Z" fill="#2B2E4E" mask="url(#path-25-inside-11_76_884)"/>
</svg>
