<svg width="54" height="113" viewBox="0 0 54 113" fill="none" xmlns="http://www.w3.org/2000/svg">
<path d="M3.2549 30.2132C2.90976 27.7942 2.73682 25.3531 2.73682 22.9099L2.73682 17.7104C2.73682 8.26714 10.3921 0.611672 19.8353 0.611672L27.1316 0.611673L34.4279 0.611673C43.8709 0.611673 51.5264 8.26714 51.5264 17.7104L51.5264 22.9099C51.5264 25.3531 51.3533 27.7942 51.0085 30.2132L49.9862 37.385C49.6071 40.0415 49.4354 42.7228 49.473 45.4061L49.8855 75.1848C49.9097 76.935 50.1854 78.6724 50.7053 80.3434C51.2493 82.0956 51.5264 83.9196 51.5264 85.7543L51.5264 98.9703C51.5264 106.272 45.607 112.192 38.305 112.192L27.1316 112.192L15.9584 112.192C8.65632 112.192 2.73682 106.272 2.73682 98.9703L2.73682 85.7543C2.73682 83.9196 3.01353 82.0956 3.55804 80.3434C4.07739 78.6724 4.35337 76.935 4.37746 75.1848L4.79015 45.4061C4.82765 42.7228 4.65599 40.0415 4.27737 37.385L3.2549 30.2132Z" fill="#050829"/>
<path opacity="0.7" d="M49.6639 31.6883C49.9892 29.4048 50.1529 27.1018 50.1529 24.7955L50.1529 19.8891C50.1529 10.9772 42.9288 3.75304 34.0167 3.75304L27.1313 3.75304L20.2459 3.75304C11.3344 3.75304 4.11011 10.9772 4.11011 19.8891L4.11011 24.7955C4.11011 27.1018 4.27339 29.4048 4.59908 31.6883L5.56393 38.4556C5.92134 40.9624 6.08308 43.4928 6.04793 46.0252L5.65851 74.1274C5.63577 75.7783 5.37529 77.4185 4.88525 78.995C4.3714 80.6485 4.11011 82.3699 4.11011 84.1013L4.11011 96.5726C4.11011 103.464 9.69635 109.05 16.587 109.05L27.1313 109.05L37.6755 109.05C44.5662 109.05 50.1529 103.464 50.1529 96.5726L50.1529 84.1013C50.1529 82.3699 49.8913 80.6485 49.3774 78.995C48.887 77.4185 48.6268 75.7783 48.604 74.1274L48.2142 46.0252C48.1793 43.4928 48.341 40.9624 48.6985 38.4556L49.6639 31.6883Z" fill="#F24444"/>
<path d="M4.05073 33.8237C4.05073 33.8237 1.25869 35.7496 0.796152 36.6747C0.333885 37.5991 0.796151 38.447 1.10433 38.3706C1.41271 38.2927 5.03443 36.7519 5.03443 36.7519L4.05073 33.8237Z" fill="#050829"/>
<path d="M50.2119 33.8237C50.2119 33.8237 53.0039 35.7496 53.4668 36.6747C53.929 37.5991 53.4668 38.447 53.1582 38.3706C52.8503 38.2927 49.2285 36.7519 49.2285 36.7519L50.2119 33.8237Z" fill="#050829"/>
<path d="M15.4282 4.14966C15.6017 3.73106 15.6475 3.27558 15.5907 2.82813C12.4768 4.07923 9.84148 6.26477 8.03052 9.04065C9.16904 8.08472 10.4431 7.29047 11.8076 6.70014C13.2003 6.09707 14.8467 5.55236 15.4282 4.14966Z" fill="#505797"/>
<path d="M38.835 4.14966C38.6612 3.73106 38.6156 3.27558 38.6727 2.82813C41.786 4.07923 44.4216 6.26477 46.2322 9.04065C45.0938 8.08472 43.8199 7.29047 42.4554 6.70014C41.0621 6.09707 39.4159 5.55236 38.835 4.14966Z" fill="#505797"/>
<path d="M10.3862 61.9771C10.3139 56.1355 10.1692 50.7836 10.1692 48.8168C10.1692 42.9222 5.77686 37.3732 5.77686 37.3732L5.77686 60.2329C7.2844 60.8829 8.83723 61.4256 10.3862 61.9771Z" fill="#0F1942"/>
<path d="M10.2627 76.5055C10.4462 72.7978 10.4496 67.6888 10.3959 62.8186C8.84012 62.3886 7.29648 61.9211 5.77686 61.3743L5.77686 78.7125C7.30091 78.0343 8.80007 77.3038 10.2627 76.5055Z" fill="#0F1942"/>
<path d="M5.77686 79.9824L5.77686 86.0353C5.77686 86.0353 9.59138 85.9192 10.1692 78.0598C10.1849 77.8458 10.1996 77.6218 10.2135 77.393C8.75814 78.302 7.31634 79.2344 5.77686 79.9824Z" fill="#0F1942"/>
<path d="M43.8767 61.9771C43.9492 56.1355 44.0934 50.7836 44.0934 48.8168C44.0934 42.9222 48.486 37.3732 48.486 37.3732L48.486 60.2329C46.9786 60.8829 45.4256 61.4256 43.8767 61.9771Z" fill="#0F1942"/>
<path d="M44.0003 76.5055C43.8165 72.7978 43.8131 67.6888 43.8668 62.8186C45.4224 62.3886 46.9667 61.9211 48.4861 61.3743L48.4861 78.7125C46.962 78.0343 45.4627 77.3038 44.0003 76.5055Z" fill="#0F1942"/>
<path d="M48.4859 79.9824L48.4859 86.0353C48.4859 86.0353 44.6716 85.9192 44.0933 78.0598C44.0779 77.8458 44.0632 77.6218 44.0491 77.393C45.5048 78.302 46.9464 79.2344 48.4859 79.9824Z" fill="#0F1942"/>
<path d="M41.8971 81.5281C41.8971 81.5281 35.7141 84.6488 27.1313 84.6488C18.549 84.6488 12.3653 81.5281 12.3653 81.5281C11.1576 84.9896 10.6917 89.629 10.5197 92.1258C10.4435 93.234 11.0399 94.2793 12.0359 94.7721C14.6259 96.0536 20.1448 98.2875 27.1313 98.2875C34.1182 98.2875 39.6364 96.0536 42.2272 94.7721C43.2227 94.2793 43.819 93.234 43.7426 92.1258C43.5715 89.629 43.1053 84.9896 41.8971 81.5281ZM46.1179 33.5338C45.855 35.4275 44.9842 39.2231 42.1071 43.1005C41.7073 43.6391 41.0512 43.9242 40.3831 43.8665C38.1633 43.6767 32.7409 43.2682 27.1313 43.2682C21.5216 43.2682 16.0994 43.6767 13.8796 43.8665C13.2114 43.9242 12.5553 43.6391 12.1559 43.1005C9.27844 39.2231 8.40797 35.4275 8.14434 33.5338C8.03244 32.7281 8.41898 31.9339 9.132 31.5441C11.1083 30.4634 16.124 28.5891 27.1313 28.5892C38.1385 28.5892 43.1542 30.4634 45.1312 31.5441C45.8442 31.9339 46.23 32.7281 46.1179 33.5338Z" fill="#0F1942"/>
<path d="M11.189 109.036C9.72529 108.592 8.36814 107.8 7.26101 106.744C6.97248 106.469 6.69268 106.172 6.33339 105.999C6.08525 105.88 5.78546 105.84 5.52686 105.913C7.07841 108.035 9.45615 109.512 12.1872 109.873L12.19 109.845C12.1753 109.385 11.6295 109.171 11.189 109.036Z" fill="#9C3025"/>
<path d="M43.0736 109.036C44.5374 108.592 45.8945 107.8 47.002 106.744C47.2904 106.469 47.5695 106.172 47.9291 105.999C48.1773 105.88 48.4771 105.84 48.7361 105.913C47.1845 108.035 44.8064 109.512 42.0754 109.873L42.0728 109.845C42.0875 109.385 42.6329 109.171 43.0736 109.036Z" fill="#9C3025"/>
</svg>
