<svg width="92" height="22" viewBox="0 0 92 22" fill="none" xmlns="http://www.w3.org/2000/svg">
<path d="M10.94 6.98C10.94 7.79333 10.7533 8.54 10.38 9.22C10.0067 9.88667 9.43333 10.4267 8.66 10.84C7.88667 11.2533 6.92667 11.46 5.78 11.46H3.66V16.5H0.24V2.46H5.78C6.9 2.46 7.84667 2.65333 8.62 3.04C9.39333 3.42667 9.97333 3.96 10.36 4.64C10.7467 5.32 10.94 6.1 10.94 6.98ZM5.52 8.74C6.17333 8.74 6.66 8.58667 6.98 8.28C7.3 7.97333 7.46 7.54 7.46 6.98C7.46 6.42 7.3 5.98667 6.98 5.68C6.66 5.37333 6.17333 5.22 5.52 5.22H3.66V8.74H5.52ZM12.0405 10.9C12.0405 9.75333 12.2538 8.74667 12.6805 7.88C13.1205 7.01333 13.7138 6.34667 14.4605 5.88C15.2071 5.41333 16.0405 5.18 16.9605 5.18C17.7471 5.18 18.4338 5.34 19.0205 5.66C19.6205 5.98 20.0805 6.4 20.4005 6.92V5.34H23.8205V16.5H20.4005V14.92C20.0671 15.44 19.6005 15.86 19.0005 16.18C18.4138 16.5 17.7271 16.66 16.9405 16.66C16.0338 16.66 15.2071 16.4267 14.4605 15.96C13.7138 15.48 13.1205 14.8067 12.6805 13.94C12.2538 13.06 12.0405 12.0467 12.0405 10.9ZM20.4005 10.92C20.4005 10.0667 20.1605 9.39333 19.6805 8.9C19.2138 8.40667 18.6405 8.16 17.9605 8.16C17.2805 8.16 16.7005 8.40667 16.2205 8.9C15.7538 9.38 15.5205 10.0467 15.5205 10.9C15.5205 11.7533 15.7538 12.4333 16.2205 12.94C16.7005 13.4333 17.2805 13.68 17.9605 13.68C18.6405 13.68 19.2138 13.4333 19.6805 12.94C20.1605 12.4467 20.4005 11.7733 20.4005 10.92ZM29.7147 7.2C30.1147 6.58667 30.6147 6.10667 31.2147 5.76C31.8147 5.4 32.4814 5.22 33.2147 5.22V8.84H32.2747C31.4214 8.84 30.7814 9.02667 30.3547 9.4C29.928 9.76 29.7147 10.4 29.7147 11.32V16.5H26.2947V5.34H29.7147V7.2ZM41.6694 16.5L38.2694 11.82V16.5H34.8494V1.7H38.2694V9.88L41.6494 5.34H45.8694L41.2294 10.94L45.9094 16.5H41.6694ZM48.9327 4.18C48.3327 4.18 47.8393 4.00667 47.4527 3.66C47.0793 3.3 46.8927 2.86 46.8927 2.34C46.8927 1.80667 47.0793 1.36667 47.4527 1.02C47.8393 0.659999 48.3327 0.479999 48.9327 0.479999C49.5193 0.479999 49.9993 0.659999 50.3727 1.02C50.7593 1.36667 50.9527 1.80667 50.9527 2.34C50.9527 2.86 50.7593 3.3 50.3727 3.66C49.9993 4.00667 49.5193 4.18 48.9327 4.18ZM50.6327 5.34V16.5H47.2127V5.34H50.6327ZM59.9111 5.22C61.2178 5.22 62.2578 5.64667 63.0311 6.5C63.8178 7.34 64.2111 8.5 64.2111 9.98V16.5H60.8111V10.44C60.8111 9.69333 60.6178 9.11333 60.2311 8.7C59.8444 8.28667 59.3244 8.08 58.6711 8.08C58.0178 8.08 57.4978 8.28667 57.1111 8.7C56.7244 9.11333 56.5311 9.69333 56.5311 10.44V16.5H53.1111V5.34H56.5311V6.82C56.8778 6.32667 57.3444 5.94 57.9311 5.66C58.5178 5.36667 59.1778 5.22 59.9111 5.22Z" fill="white"/>
<path d="M70.8277 5.18C71.6143 5.18 72.301 5.34 72.8877 5.66C73.4877 5.98 73.9477 6.4 74.2677 6.92V5.34H77.6877V16.48C77.6877 17.5067 77.481 18.4333 77.0677 19.26C76.6677 20.1 76.0477 20.7667 75.2077 21.26C74.381 21.7533 73.3477 22 72.1077 22C70.4543 22 69.1143 21.6067 68.0877 20.82C67.061 20.0467 66.4743 18.9933 66.3277 17.66H69.7077C69.8143 18.0867 70.0677 18.42 70.4677 18.66C70.8677 18.9133 71.361 19.04 71.9477 19.04C72.6543 19.04 73.2143 18.8333 73.6277 18.42C74.0543 18.02 74.2677 17.3733 74.2677 16.48V14.9C73.9343 15.42 73.4743 15.8467 72.8877 16.18C72.301 16.5 71.6143 16.66 70.8277 16.66C69.9077 16.66 69.0743 16.4267 68.3277 15.96C67.581 15.48 66.9877 14.8067 66.5477 13.94C66.121 13.06 65.9077 12.0467 65.9077 10.9C65.9077 9.75333 66.121 8.74667 66.5477 7.88C66.9877 7.01333 67.581 6.34667 68.3277 5.88C69.0743 5.41333 69.9077 5.18 70.8277 5.18ZM74.2677 10.92C74.2677 10.0667 74.0277 9.39333 73.5477 8.9C73.081 8.40667 72.5077 8.16 71.8277 8.16C71.1477 8.16 70.5677 8.40667 70.0877 8.9C69.621 9.38 69.3877 10.0467 69.3877 10.9C69.3877 11.7533 69.621 12.4333 70.0877 12.94C70.5677 13.4333 71.1477 13.68 71.8277 13.68C72.5077 13.68 73.081 13.4333 73.5477 12.94C74.0277 12.4467 74.2677 11.7733 74.2677 10.92ZM85.2419 16.66C84.1485 16.66 83.1619 16.4267 82.2819 15.96C81.4152 15.4933 80.7285 14.8267 80.2219 13.96C79.7285 13.0933 79.4819 12.08 79.4819 10.92C79.4819 9.77333 79.7352 8.76667 80.2419 7.9C80.7485 7.02 81.4419 6.34667 82.3219 5.88C83.2019 5.41333 84.1885 5.18 85.2819 5.18C86.3752 5.18 87.3619 5.41333 88.2419 5.88C89.1219 6.34667 89.8152 7.02 90.3219 7.9C90.8285 8.76667 91.0819 9.77333 91.0819 10.92C91.0819 12.0667 90.8219 13.08 90.3019 13.96C89.7952 14.8267 89.0952 15.4933 88.2019 15.96C87.3219 16.4267 86.3352 16.66 85.2419 16.66ZM85.2419 13.7C85.8952 13.7 86.4485 13.46 86.9019 12.98C87.3685 12.5 87.6019 11.8133 87.6019 10.92C87.6019 10.0267 87.3752 9.34 86.9219 8.86C86.4819 8.38 85.9352 8.14 85.2819 8.14C84.6152 8.14 84.0619 8.38 83.6219 8.86C83.1819 9.32667 82.9619 10.0133 82.9619 10.92C82.9619 11.8133 83.1752 12.5 83.6019 12.98C84.0419 13.46 84.5885 13.7 85.2419 13.7Z" fill="#15C05A"/>
</svg>
